<svg width="180" height="180" viewBox="0 0 180 180" fill="none" xmlns="http://www.w3.org/2000/svg">
<rect width="180" height="180" rx="40" fill="#232936"/>
<path d="M115.663 50.816L115.501 50.563L115.5 50.564L115.494 50.568C115.485 50.5736 115.477 50.5789 115.468 50.584L115.365 50.648C114.738 51.0333 114.104 51.407 113.464 51.769C111.774 52.7227 110.045 53.6051 108.282 54.414C104.086 56.333 98.779 58.205 94.237 58.105C91.943 58.054 90.037 57.863 88.24 57.674L87.9459 57.643C86.2599 57.465 84.6519 57.296 82.9049 57.259C79.1979 57.181 74.883 57.702 67.784 59.966C60.626 62.248 56.0409 66.891 52.7409 71.314C51.4599 73.031 50.367 74.721 49.396 76.225C49.118 76.655 48.85 77.07 48.59 77.466C47.41 79.263 46.42 80.636 45.447 81.342C43.393 82.831 39.148 85.999 35.418 88.792C33.7924 90.0095 32.1678 91.2282 30.544 92.448L29.03 93.586L28.615 93.899L28.507 93.981L28.479 94.002L28.472 94.007L28.47 94.008L28.325 94.118L28.354 94.297L28.382 94.469L28.438 94.812L28.769 94.707L39.229 91.376C38.834 91.798 38.298 92.386 37.618 93.168C36.004 95.026 33.579 97.978 30.295 102.391C30.271 102.369 30.2473 102.347 30.224 102.325L29.56 101.714L29.727 102.6L29.739 102.664L29.75 102.723L29.783 102.773L29.784 102.775L29.787 102.78L29.799 102.799L29.847 102.871C30.1286 103.279 30.4228 103.679 30.729 104.069C31.4859 105.038 32.316 105.948 33.212 106.79C34.238 107.744 35.444 108.662 36.745 109.243C38.048 109.825 39.462 110.077 40.883 109.668C41.403 109.516 41.978 109.278 42.593 108.971C44.743 110.152 47.532 111.303 50.613 111.625L51.364 111.704L50.872 111.131L50.871 111.13L50.867 111.125C50.8613 111.118 50.8553 111.111 50.849 111.105L50.781 111.024C50.3845 110.549 49.9961 110.068 49.6159 109.58C48.7674 108.493 47.9667 107.369 47.216 106.212L48.049 105.671L52.337 107.247L52.795 107.415L52.738 106.93L52.302 103.214L56.235 104.659L56.7059 104.832L56.635 104.335L56.1259 100.767C56.6109 100.517 57.0909 100.28 57.5709 100.059L57.702 100L57.738 99.863L62.236 82.849L80.0509 70.697L78.9259 73.527C77.0509 78.137 74.3579 80.98 72.1399 82.669C71.2622 83.3426 70.3199 83.9278 69.327 84.416C68.9818 84.5836 68.6284 84.7335 68.268 84.865L68.212 84.884L68.207 84.886C68.2042 84.8868 68.2016 84.8878 68.199 84.889L68.1959 84.89L68.187 84.893L68.178 84.896L65.2029 86.024L65.13 86.05L65.08 86.109L64.735 86.514C63.809 87.598 63.092 88.437 62.533 89.903C61.912 91.531 61.487 93.923 61.108 98.312L61.0719 98.731L61.4799 98.628C63.2329 98.188 64.882 98.089 66.359 98.487C70.252 99.536 72.8839 102.41 74.2789 105.363C74.9759 106.839 75.359 108.324 75.438 109.594C75.518 110.876 75.286 111.887 74.816 112.468C74.307 113.097 73.083 114.189 71.498 115.503H68.0649L68.06 115.798L68.018 118.285L68.0159 118.287L67.8779 118.394H64.3849L64.38 118.689L64.3419 121.111L63.9259 121.424L63.674 121.614C62.22 121.616 60.559 120.996 59.227 120.346C58.4887 119.984 57.7721 119.58 57.0809 119.135C57.0382 119.108 56.9958 119.08 56.954 119.051L56.922 119.029L56.916 119.025L56.915 119.024L56.913 119.023L56.443 118.7V119.271C56.443 120.566 56.9769 122.176 57.4909 123.435C57.779 124.134 58.0956 124.822 58.4399 125.495L58.442 125.498L58.319 125.586L58.581 125.761L58.666 125.918L58.755 125.876L58.7789 125.892L59.056 126.067C60.4873 126.951 61.9863 127.72 63.539 128.368C64.917 128.937 66.4699 129.446 68.0159 129.682C69.5599 129.918 71.118 129.883 72.492 129.344C73.684 128.877 75.3299 127.927 77.2729 126.712C78.6089 125.877 80.096 124.908 81.686 123.873C82.415 123.398 83.1649 122.91 83.9319 122.414C88.8169 119.255 94.397 115.776 99.562 113.54L130.989 105.261L131.137 105.222L131.192 105.079L135.339 94.335L135.55 93.788L134.983 93.938L111.392 100.153V91.12L139.29 83.77L139.438 83.731L139.493 83.588L143.64 72.844L143.851 72.297L143.284 72.447L111.4 80.848V71.816L147.583 62.282L147.731 62.243L147.786 62.1L151.649 52.096L151.684 52.004L151.658 51.909L151.49 51.289L151.412 51.002L151.124 51.078L113.671 60.946C115.401 58.216 115.999 55.762 116.151 53.941C116.233 52.959 116.184 52.163 116.114 51.609C116.08 51.3352 116.031 51.0635 115.967 50.795C115.963 50.7796 115.959 50.7643 115.955 50.749L115.951 50.736L115.95 50.732L115.663 50.816ZM115.663 50.816L115.501 50.563L115.837 50.349L115.95 50.732L115.663 50.816ZM115.375 50.901C115.375 50.9 115.375 50.9 115.375 50.901ZM90.6569 82.695L97.674 80.845L95.442 86.628L88.4249 88.478L90.6569 82.695ZM95.014 89.314L92.782 95.101L85.7649 96.952L87.998 91.164L95.014 89.314ZM105.091 87.151L102.859 92.938L95.842 94.789L98.075 89.001L105.091 87.151Z" fill="black"/>
<path d="M69.745 130.119C69.1509 130.117 68.5579 130.069 67.971 129.977C66.585 129.766 65.055 129.317 63.425 128.644C61.857 127.989 60.343 127.212 58.897 126.32L58.733 126.217L58.537 126.31L58.353 125.968L57.791 125.594L58.058 125.404L57.936 125.158C57.757 124.791 57.486 124.214 57.215 123.549C56.505 121.811 56.145 120.371 56.145 119.272V118.13L57.123 118.803L57.247 118.885C57.9275 119.324 58.6334 119.722 59.361 120.078C60.494 120.631 62.134 121.288 63.577 121.315L63.653 121.258L63.748 121.186L64.047 120.962L64.092 118.096H67.723L67.771 115.205H71.392C73.066 113.815 74.14 112.831 74.585 112.281C75.011 111.754 75.213 110.781 75.141 109.614C75.061 108.332 74.66 106.868 74.01 105.493C73.2915 103.964 72.2883 102.586 71.054 101.433C69.704 100.172 68.0656 99.2601 66.282 98.7781C64.931 98.4141 63.385 98.4611 61.554 98.9201L60.738 99.1261L60.811 98.2871C61.185 93.9661 61.603 91.5061 62.255 89.7971C62.832 88.2831 63.572 87.4171 64.509 86.3201L64.598 86.2151L64.852 85.9161L64.953 85.7971L65.097 85.7421L68.091 84.6071L68.122 84.5971L68.171 84.5811C68.52 84.4529 68.8625 84.3074 69.197 84.1451C70.1721 83.6658 71.0973 83.0909 71.959 82.4291C73.2537 81.4378 74.4192 80.2882 75.428 79.0071C76.71 77.3861 77.787 75.5231 78.628 73.4681V73.4611L78.652 73.4091L79.412 71.4971L62.497 83.0341L58.028 99.9401L57.956 100.214L57.698 100.332C57.301 100.515 56.893 100.713 56.455 100.936L57.077 105.286L52.659 103.663L53.152 107.863L48.088 106.002L47.632 106.298C48.3307 107.359 49.0719 108.392 49.854 109.393C50.242 109.892 50.558 110.281 50.755 110.519C50.865 110.653 50.953 110.757 51.012 110.828L51.085 110.914C51.0876 110.917 51.09 110.92 51.092 110.923L51.172 111.001V111.017L52.085 112.079L50.583 111.921C47.974 111.648 45.285 110.768 42.587 109.306C42.0746 109.563 41.5417 109.776 40.994 109.945L40.967 109.953C40.9637 109.954 40.9604 109.955 40.957 109.956L40.927 109.965C39.582 110.341 38.135 110.19 36.623 109.515C35.448 108.99 34.232 108.147 33.008 107.008C31.815 105.885 30.7361 104.646 29.787 103.31L29.7 103.186L29.694 103.19L29.535 102.946L29.483 102.877V102.866L29.464 102.838L29.431 102.657L29.1 100.882L30.255 101.944C33.562 97.5131 35.957 94.6241 37.393 92.9711C37.689 92.6311 37.974 92.3071 38.248 92.0031L28.86 94.9921L28.197 95.2021L28 93.9871L28.435 93.6601L28.628 93.5151L29.418 92.9211L30.366 92.2091C31.511 91.3491 33.286 90.0171 35.24 88.5531C38.639 86.0071 43.139 82.6481 45.273 81.1001C46.185 80.4391 47.159 79.1041 48.341 77.3031C48.6 76.9081 48.869 76.4921 49.146 76.0641C50.116 74.5631 51.215 72.8631 52.502 71.1371C54.473 68.4951 56.477 66.3591 58.628 64.6061C61.3133 62.4084 64.3896 60.7378 67.695 59.6821C73.964 57.6821 78.515 56.8691 82.913 56.9611C84.673 56.9981 86.279 57.1671 87.979 57.3471L88.273 57.3781C90.23 57.5841 92.03 57.7581 94.245 57.8071C96.289 57.8521 98.666 57.4901 101.308 56.7301C103.44 56.1171 105.745 55.2461 108.159 54.1431C109.914 53.3369 111.635 52.4585 113.318 51.5101C113.98 51.1366 114.634 50.7499 115.28 50.3501L115.352 50.3041L116.012 49.8831L116.323 50.9351L116.308 50.9391C116.337 51.0791 116.377 51.2951 116.412 51.5731C116.507 52.3261 116.52 53.1321 116.45 53.9671C116.268 56.1581 115.55 58.3411 114.313 60.4681L151.624 50.6381L152 52.0201L151.93 52.2031L147.957 62.4941L147.66 62.5721L111.7 72.0471V80.4591L144.342 71.8571L143.92 72.9521L139.663 83.9821L139.366 84.0601L111.691 91.3521V99.7601L134.906 93.6451L136.041 93.3461L135.619 94.4411L131.362 105.472L131.065 105.55L99.661 113.823C94.611 116.012 89.196 119.366 84.096 122.665C83.364 123.138 82.646 123.606 81.951 124.059L81.827 124.14C80.252 125.165 78.764 126.134 77.433 126.966C75.171 128.381 73.681 129.2 72.602 129.623C71.758 129.953 70.802 130.119 69.745 130.119ZM58.944 125.64L59.215 125.811C60.6327 126.686 62.1169 127.447 63.654 128.089C65.24 128.744 66.722 129.18 68.061 129.384C69.735 129.639 71.189 129.531 72.382 129.063C73.425 128.654 74.884 127.85 77.114 126.456C78.441 125.626 79.926 124.659 81.499 123.635L81.623 123.554C82.3378 123.088 83.0535 122.623 83.77 122.159C88.899 118.842 94.348 115.468 99.444 113.261L99.465 113.252L99.487 113.246L130.914 104.967L135.06 94.2231L111.093 100.537V90.8881L139.215 83.4791L143.362 72.7351L111.1 81.2371V71.5841L147.507 61.9911L151.37 51.9871L151.202 51.3681L113.01 61.4301L113.419 60.7851C114.842 58.5401 115.661 56.2291 115.853 53.9161C115.935 52.9271 115.879 52.1361 115.817 51.6471C115.795 51.4667 115.766 51.2873 115.73 51.1091L115.53 51.1681L115.408 50.9781L115.406 50.9751C115.391 50.9836 115.377 50.9926 115.363 51.0021L115.329 51.1981L115.155 51.1721L115.142 51.1371L115.119 51.1511C114.648 51.4361 114.141 51.7321 113.611 52.0311C111.914 52.9886 110.178 53.8751 108.407 54.6881C105.966 55.8041 103.633 56.6851 101.472 57.3061C98.772 58.0821 96.335 58.4521 94.23 58.4061C91.992 58.3571 90.179 58.1811 88.209 57.9741L87.915 57.9431C86.228 57.7651 84.634 57.5971 82.899 57.5611C78.571 57.4701 74.078 58.2751 67.876 60.2541C64.608 61.2961 61.706 62.8721 59.006 65.0721C56.894 66.7931 54.923 68.8941 52.982 71.4961C51.706 73.2061 50.613 74.8971 49.649 76.3901C49.372 76.8181 49.102 77.2361 48.842 77.6321C47.589 79.5411 46.613 80.8691 45.624 81.5861C43.493 83.1311 38.996 86.4891 35.599 89.0331C33.9738 90.2505 32.3494 91.4692 30.726 92.6891L29.779 93.4011L28.989 93.9951L28.797 94.1391L28.655 94.2451L28.649 94.2371L28.679 94.4211L40.236 90.7411L39.448 91.5811C38.9026 92.1657 38.3682 92.7605 37.845 93.3651C36.386 95.0441 33.934 98.0031 30.536 102.57L30.338 102.836L30.155 102.669V102.79L30.277 102.964C30.488 103.262 30.72 103.571 30.966 103.884C31.506 104.572 32.37 105.596 33.417 106.571C34.593 107.665 35.754 108.472 36.868 108.97C38.251 109.588 39.565 109.728 40.775 109.388L40.813 109.369H40.841C41.3983 109.193 41.9399 108.971 42.46 108.704L42.6 108.634L42.738 108.71C45.386 110.164 48.022 111.043 50.573 111.321V111.243L50.552 111.218C50.1522 110.741 49.7614 110.256 49.38 109.764C48.5252 108.67 47.719 107.539 46.964 106.374L46.802 106.123L47.053 105.961L47.885 105.42L48.011 105.338L52.441 106.966L51.948 102.765L56.339 104.378L55.799 100.599L55.989 100.501C56.507 100.234 56.984 100.001 57.446 99.7871L61.972 82.6651L80.689 69.8981L79.223 73.5851V73.5941L79.198 73.6471C78.333 75.7731 77.221 77.7031 75.893 79.3811C74.8534 80.7021 73.652 81.8874 72.317 82.9091C71.423 83.5943 70.4637 84.1898 69.453 84.6871C69.0974 84.8598 68.7333 85.0143 68.362 85.1501L68.301 85.1711L68.28 85.1781L65.306 86.3061L65.051 86.6061L64.961 86.7111C64.026 87.8051 63.351 88.5951 62.811 90.0121C62.181 91.6661 61.773 94.0791 61.404 98.3401C63.336 97.8551 64.982 97.8091 66.434 98.2001C68.3111 98.7074 70.0355 99.6663 71.457 100.993C72.7477 102.198 73.7968 103.639 74.548 105.237C75.23 106.68 75.651 108.221 75.735 109.577C75.818 110.911 75.574 112.006 75.047 112.658C74.563 113.257 73.464 114.263 71.687 115.736L71.604 115.805H68.36L68.316 118.418L68.193 118.536L68.179 118.543L68.159 118.558L68.065 118.631L67.983 118.695H64.681L64.641 121.263L64.525 121.351C64.385 121.457 64.246 121.562 64.107 121.665L64.012 121.737L63.856 121.854L63.776 121.915H63.669C62.795 121.915 61.295 121.689 59.097 120.616C58.3476 120.249 57.6203 119.839 56.919 119.387C56.875 119.359 56.8313 119.33 56.788 119.3L56.744 119.271C56.744 120.278 57.099 121.679 57.77 123.321C58.0475 123.998 58.3531 124.664 58.686 125.316L58.692 125.322L58.713 125.369L58.802 125.546L58.811 125.552L58.814 125.558L58.915 125.621L58.944 125.64ZM85.274 97.3911L87.773 90.9131L95.505 88.8751L93.007 95.3521L85.274 97.3911ZM88.222 91.4151L86.256 96.5121L92.558 94.8501L94.524 89.7541L88.222 91.4151ZM95.35 95.2281L97.849 88.7501L105.581 86.7111L103.083 93.1881L95.35 95.2281ZM98.299 89.2521L96.333 94.3491L102.635 92.6871L104.601 87.5911L98.299 89.2521ZM87.933 88.9181L90.432 82.4441L98.164 80.4051L95.665 86.8781L87.933 88.9181ZM90.881 82.9461L88.915 88.0381L95.217 86.3761L97.182 81.2841L90.881 82.9461Z" fill="white"/>
</svg>
