<svg width="180" height="180" viewBox="0 0 180 180" fill="none" xmlns="http://www.w3.org/2000/svg">
<rect width="180" height="180" rx="40" fill="#232936"/>
<path d="M135.766 33.281C135.829 34.7842 135.45 36.273 134.676 37.563C133.904 38.8466 132.769 39.8728 131.414 40.512C130.062 41.1469 128.55 41.3628 127.074 41.132C125.595 40.9016 124.219 40.2355 123.121 39.219C122.018 38.1963 121.242 36.8709 120.889 35.4089C120.536 33.9468 120.622 32.4132 121.137 31C121.646 29.5896 122.561 28.3611 123.766 27.469C124.969 26.5812 126.409 26.0725 127.902 26.008C128.893 25.9663 129.882 26.1211 130.813 26.4637C131.743 26.8063 132.597 27.3298 133.324 28.004C134.8 29.3712 135.677 31.2665 135.762 33.277L135.766 33.281Z" fill="#767677"/>
<path d="M91.758 122.79C71.66 122.79 54.109 115.426 44.992 104.523C48.3726 114.285 54.697 122.759 63.094 128.777C71.4558 134.768 81.4835 137.99 91.77 137.992C102.056 137.988 112.083 134.766 120.445 128.777C128.841 122.759 135.162 114.285 138.539 104.523C129.406 115.426 111.855 122.79 91.758 122.79ZM91.75 51.883C111.848 51.883 129.402 59.25 138.516 70.148C135.135 60.3863 128.811 51.913 120.414 45.895C112.053 39.9043 102.027 36.6803 91.742 36.675C81.4565 36.6803 71.4307 39.9043 63.07 45.895C54.672 51.9113 48.3479 60.3853 44.97 70.148C54.102 59.27 71.652 51.883 91.75 51.883Z" fill="#F37726"/>
<path d="M64.164 143.984C64.2464 145.879 63.7696 147.757 62.793 149.383C61.8225 151.001 60.3921 152.294 58.6842 153.096C56.9762 153.898 55.0681 154.174 53.203 153.887C51.338 153.599 49.6028 152.756 48.223 151.469C46.8374 150.179 45.8607 148.511 45.414 146.672C44.973 144.826 45.0818 142.89 45.727 141.105C46.3741 139.326 47.5318 137.777 49.055 136.652C50.8291 135.348 53.0022 134.704 55.2003 134.829C57.3983 134.955 59.4839 135.843 61.098 137.34C62.9553 139.066 64.057 141.455 64.164 143.988V143.984Z" fill="#989798"/>
<path d="M47.285 49.418C46.1803 49.466 45.0865 49.1818 44.145 48.602C43.1971 48.0209 42.4425 47.1721 41.9766 46.1626C41.5106 45.1532 41.3542 44.0283 41.527 42.93C41.6929 41.8288 42.1827 40.8019 42.934 39.98C43.6786 39.1616 44.6492 38.5826 45.723 38.316C46.796 38.0479 47.9252 38.1121 48.961 38.5C50.0005 38.8829 50.9013 39.5688 51.547 40.469C52.3095 41.5223 52.6861 42.806 52.6135 44.1043C52.5408 45.4026 52.0233 46.6363 51.148 47.598C50.6555 48.1415 50.0602 48.5822 49.3965 48.8946C48.7328 49.207 48.0138 49.3848 47.281 49.418H47.285Z" fill="#6F7070"/>
</svg>
